<?xml version="1.0" standalone="no"?>
<!DOCTYPE svg PUBLIC "-//W3C//DTD SVG 20010904//EN"
 "http://www.w3.org/TR/2001/REC-SVG-20010904/DTD/svg10.dtd">
<svg version="1.0" xmlns="http://www.w3.org/2000/svg"
 width="260.000000pt" height="260.000000pt" viewBox="0 0 260.000000 260.000000"
 preserveAspectRatio="xMidYMid meet">
<metadata>
Created by potrace 1.14, written by Peter Selinger 2001-2017
</metadata>
<g transform="translate(0.000000,260.000000) scale(0.100000,-0.100000)"
fill="#000000" stroke="none">
<path d="M713 2462 c-7 -4 -141 -268 -299 -586 l-287 -579 284 -570 c156 -313
290 -576 297 -583 20 -21 1164 -21 1184 0 7 7 141 270 297 583 l284 570 -287
579 c-158 318 -292 582 -299 586 -16 10 -1158 10 -1174 0z m1394 -624 l270
-543 -269 -537 -268 -538 -540 0 -540 0 -268 538 -269 537 270 543 269 542
538 0 538 0 269 -542z"/>
<path d="M1325 2016 c-5 -2 -36 -9 -67 -16 -61 -12 -74 -27 -63 -73 5 -20 15
-27 45 -32 62 -10 152 -59 193 -103 47 -54 51 -84 16 -133 -10 -15 -19 -35
-19 -44 0 -16 102 -159 123 -172 5 -3 24 9 42 27 39 38 61 35 101 -13 21 -26
25 -38 21 -70 -6 -46 5 -82 35 -114 42 -45 67 -31 146 81 50 70 55 115 19 167
-20 29 -29 34 -59 32 -50 -3 -66 20 -77 105 -9 68 -12 75 -83 165 -85 109
-118 139 -182 168 -42 18 -166 34 -191 25z"/>
<path d="M1304 1463 c-168 -219 -194 -253 -346 -452 -82 -106 -151 -204 -154
-217 -10 -40 4 -84 44 -142 42 -62 67 -82 99 -82 35 0 18 -23 398 540 205 304
199 294 184 321 -19 36 -111 159 -119 159 -4 0 -52 -57 -106 -127z"/>
</g>
</svg>
