<?xml version="1.0" standalone="no"?>
<!DOCTYPE svg PUBLIC "-//W3C//DTD SVG 20010904//EN"
 "http://www.w3.org/TR/2001/REC-SVG-20010904/DTD/svg10.dtd">
<svg version="1.0" xmlns="http://www.w3.org/2000/svg"
 width="372.000000pt" height="372.000000pt" viewBox="0 0 372.000000 372.000000"
 preserveAspectRatio="xMidYMid meet">
<metadata>
Created by potrace 1.14, written by Peter Selinger 2001-2017
</metadata>
<g transform="translate(0.000000,372.000000) scale(0.100000,-0.100000)"
fill="#000000" stroke="none">
<path d="M1645 2959 c-2 -3 -23 -6 -46 -8 -23 -1 -46 -4 -49 -6 -4 -2 -20 -7
-36 -9 -62 -12 -77 -16 -83 -21 -11 -12 -10 -85 2 -86 43 -4 68 -7 112 -14 28
-5 54 -9 58 -9 4 -1 12 -8 17 -16 5 -8 10 -10 10 -3 0 14 93 -12 98 -27 2 -6
8 -8 13 -4 5 3 9 1 9 -5 0 -6 7 -8 15 -5 8 4 15 1 15 -5 0 -6 9 -11 20 -11 11
0 20 -4 20 -10 0 -5 6 -10 13 -10 7 0 23 -9 35 -20 12 -11 24 -20 27 -20 3 0
17 -11 31 -25 14 -14 29 -25 34 -25 6 0 10 -5 10 -11 0 -5 -4 -8 -9 -4 -5 3
-12 1 -16 -4 -3 -6 3 -8 15 -6 20 4 46 -26 33 -39 -3 -3 -1 -6 7 -6 10 0 10
-3 0 -15 -7 -9 -10 -18 -6 -22 3 -3 6 0 6 7 0 7 2 11 5 8 9 -9 -6 -58 -16 -52
-5 3 -6 -1 -3 -9 3 -9 -6 -24 -22 -36 -15 -11 -24 -21 -21 -21 3 0 -5 -11 -18
-24 -23 -23 -26 -64 -4 -50 5 3 9 -3 9 -12 0 -10 3 -15 6 -11 11 10 47 -31 39
-44 -5 -8 -4 -10 4 -5 8 5 43 -24 97 -78 75 -76 109 -102 102 -78 -4 10 47 62
61 62 7 0 10 4 7 9 -3 4 6 13 20 20 14 6 23 7 20 2 -3 -5 1 -11 9 -15 8 -3 14
-2 14 2 -3 19 2 25 11 12 6 -9 10 -11 10 -3 0 7 7 10 15 7 8 -4 13 -10 10 -14
-3 -5 4 -6 15 -3 12 3 20 0 20 -6 0 -7 4 -10 9 -7 14 9 104 -71 95 -86 -3 -4
-1 -8 5 -8 15 0 24 -59 11 -75 -13 -15 -21 -97 -10 -90 12 8 32 -23 24 -36 -5
-9 -2 -10 9 -6 10 3 17 2 17 -4 0 -16 21 -34 55 -46 17 -6 39 -14 50 -19 33
-12 45 -13 39 -3 -3 5 -10 7 -15 4 -5 -4 -9 -1 -9 4 0 6 7 11 15 11 8 0 29 15
47 33 17 17 28 26 23 18 -5 -10 -4 -12 3 -7 7 4 12 12 12 17 0 16 62 74 74 71
6 -2 8 -1 4 3 -3 4 1 15 10 25 10 10 23 26 30 35 7 8 18 12 24 9 7 -5 8 -2 3
6 -4 7 -2 16 5 20 7 4 13 19 13 34 0 14 5 26 11 26 6 0 4 5 -4 10 -8 5 -12 10
-7 10 12 0 -25 51 -63 87 -25 25 -43 33 -70 33 -20 0 -40 -4 -46 -10 -12 -12
-84 6 -84 21 0 6 -4 7 -10 4 -5 -3 -10 1 -10 9 0 9 -4 16 -9 16 -15 0 -30 52
-35 120 -2 36 -9 76 -14 90 -6 14 -48 63 -93 109 -46 46 -83 88 -81 92 1 5 -2
8 -7 7 -4 -2 -35 22 -68 53 -91 85 -158 123 -313 176 -21 8 -62 15 -82 14 -10
0 -18 3 -18 7 0 9 -280 10 -285 1z"/>
<path d="M1547 2799 c7 -7 15 -10 18 -7 3 3 -2 9 -12 12 -14 6 -15 5 -6 -5z"/>
<path d="M1595 2791 c-3 -5 -2 -12 3 -15 5 -3 9 1 9 9 0 17 -3 19 -12 6z"/>
<path d="M1686 2762 c-2 -4 4 -8 14 -8 10 0 16 4 14 8 -3 4 -9 8 -14 8 -5 0
-11 -4 -14 -8z"/>
<path d="M1815 2270 c-21 -21 -42 -37 -47 -34 -5 3 -7 2 -6 -3 4 -11 -210
-223 -224 -223 -6 0 -9 -3 -5 -6 7 -7 -16 -34 -30 -35 -4 0 -25 -21 -45 -45
-21 -25 -38 -43 -38 -41 0 3 -45 -40 -99 -95 -54 -55 -102 -95 -105 -90 -3 6
-24 13 -46 17 -59 10 -72 -5 -66 -75 l5 -57 -53 -56 c-31 -32 -56 -51 -58 -44
-3 7 -6 59 -7 117 -3 97 -9 119 -32 120 -13 0 -38 -67 -69 -185 -17 -65 -32
-127 -33 -137 -2 -29 -15 -21 -22 15 -11 50 -76 249 -91 280 -8 15 -21 27 -29
27 -12 0 -15 -16 -16 -72 -1 -40 -2 -89 -4 -108 -11 -161 -16 -319 -8 -323 5
-3 15 -2 22 2 12 8 23 168 24 334 0 20 4 37 8 37 5 0 9 -3 9 -7 0 -5 14 -60
30 -123 37 -143 38 -172 5 -198 -14 -11 -25 -25 -25 -31 0 -6 -3 -10 -7 -9
-10 3 -87 -74 -109 -107 -9 -14 -19 -23 -23 -21 -11 7 -11 -96 0 -110 6 -8 9
-20 6 -28 -4 -11 -1 -13 11 -9 9 3 14 3 10 -1 -3 -4 25 -39 64 -76 46 -46 67
-73 62 -82 -4 -7 -4 -10 1 -6 4 4 17 2 29 -4 11 -7 24 -11 29 -10 4 1 7 -3 7
-9 0 -6 6 -9 14 -6 7 3 19 0 25 -6 8 -8 11 -8 11 1 0 10 5 10 21 1 17 -9 20
-8 14 2 -6 9 -3 11 9 6 10 -4 15 -3 11 3 -3 6 -2 10 3 10 13 0 97 84 105 104
4 9 14 16 22 16 9 0 14 4 10 9 -3 5 5 17 17 25 12 9 19 16 14 16 -5 0 3 11 18
25 15 14 32 23 37 19 5 -3 9 -2 8 3 -4 24 3 43 16 43 8 0 15 3 15 8 0 12 62
77 71 75 5 -2 8 3 6 10 -1 6 4 11 11 9 8 -1 11 2 8 6 -6 10 70 92 85 92 15 0
59 51 74 85 12 29 64 92 66 81 1 -4 2 -9 3 -13 1 -5 6 -28 10 -53 22 -124 111
-154 161 -55 17 34 20 61 21 191 1 83 4 157 9 163 4 7 14 10 22 6 13 -4 14 -3
4 9 -10 12 -8 16 9 21 11 3 19 9 16 13 -2 4 8 18 22 32 13 14 21 18 17 10 -5
-9 -4 -12 1 -7 5 5 10 13 10 18 1 5 2 14 3 20 0 5 6 7 11 4 6 -3 10 -1 10 5 0
6 5 8 12 4 7 -4 8 -3 4 4 -8 13 43 74 55 66 5 -3 6 3 2 12 -4 12 -3 15 5 10 7
-4 12 -2 12 4 0 6 5 8 12 4 7 -4 8 -3 4 4 -10 17 29 56 46 46 10 -6 11 -4 2 7
-8 10 -5 19 12 35 13 12 25 19 28 16 3 -3 6 1 6 10 0 19 34 51 44 41 4 -5 6
-1 4 7 -2 8 -14 26 -28 39 -14 14 -24 28 -23 32 2 4 -6 11 -17 14 -11 4 -20
10 -20 14 0 4 -31 39 -70 78 -38 39 -66 74 -62 78 4 5 2 5 -5 1 -6 -3 -16 0
-20 9 -7 12 -16 8 -48 -25z m-626 -606 c2 -2 -4 -13 -14 -24 -21 -23 -28 -20
-30 15 0 21 3 24 20 19 11 -4 22 -8 24 -10z m-241 -159 c1 -82 0 -86 -30 -115
-28 -29 -30 -29 -25 -8 4 13 16 65 28 116 12 50 23 92 24 92 1 0 3 -38 3 -85z
m729 30 c-4 -8 -1 -17 4 -21 15 -9 4 -182 -14 -227 -19 -45 -52 -51 -67 -12
-15 40 -27 161 -18 185 4 12 17 24 28 27 11 3 18 9 15 13 -6 9 32 50 46 50 6
0 9 -7 6 -15z"/>
<path d="M1590 1459 c0 -5 5 -7 10 -4 6 3 10 8 10 11 0 2 -4 4 -10 4 -5 0 -10
-5 -10 -11z"/>
<path d="M2060 2186 c0 -2 8 -10 18 -17 15 -13 16 -12 3 4 -13 16 -21 21 -21
13z"/>
<path d="M251 1793 c-59 -29 -75 -82 -78 -258 -3 -165 6 -221 42 -277 27 -40
77 -58 112 -40 11 6 25 7 33 2 30 -18 42 0 34 54 -4 28 -8 64 -9 80 -4 42 -27
60 -62 49 -38 -13 -43 -41 -7 -45 59 -7 47 -100 -13 -106 -72 -7 -99 78 -90
290 7 169 27 228 76 228 34 0 51 18 30 31 -19 12 -29 11 -68 -8z"/>
<path d="M2595 1803 c4 -9 -5 -13 -33 -13 -43 0 -102 -17 -102 -30 0 -12 26
-20 50 -15 13 3 20 -2 21 -13 4 -47 7 -184 9 -329 2 -89 6 -167 11 -174 14
-23 37 8 33 44 -1 17 -6 132 -9 255 l-6 222 25 0 c34 0 40 14 15 41 -11 13
-18 18 -14 12z"/>
<path d="M509 1723 c0 -5 -3 -21 -5 -38 -2 -16 -9 -66 -15 -110 -6 -44 -19
-120 -30 -170 -11 -49 -22 -98 -24 -108 -2 -10 -7 -27 -10 -36 -3 -10 1 -23 8
-30 19 -15 34 3 42 49 11 68 14 72 48 64 39 -8 43 -14 45 -66 2 -40 16 -61 37
-54 12 3 13 37 2 90 -4 21 -10 64 -13 95 -5 57 -7 82 -20 186 -4 33 -8 71 -8
85 -1 14 -5 31 -9 38 -9 13 -46 17 -48 5z m44 -292 l3 -68 -30 7 c-22 4 -31
12 -30 26 2 34 19 145 35 223 3 12 18 -122 22 -188z"/>
<path d="M1859 1718 c0 -7 -2 -20 -3 -28 -2 -8 -6 -43 -10 -77 -7 -64 -49
-284 -65 -339 -6 -21 -5 -36 1 -42 20 -20 38 0 44 48 8 64 14 71 52 64 32 -6
40 -22 45 -91 1 -23 22 -37 39 -27 5 4 6 23 2 48 -10 56 -13 81 -19 151 -4 33
-8 70 -10 83 -3 20 -11 84 -20 182 -2 14 -3 28 -4 33 -2 12 -51 8 -52 -5z m37
-193 c13 -159 13 -161 -16 -156 -42 5 -42 2 -9 189 6 35 13 61 15 60 2 -2 6
-44 10 -93z"/>
<path d="M2035 1709 c-4 -11 -4 -98 0 -192 4 -95 8 -199 8 -232 2 -46 6 -60
17 -60 10 0 15 9 14 30 -7 167 -7 231 1 223 3 -2 14 -48 25 -101 22 -108 43
-157 66 -157 18 0 18 -2 -14 90 -10 30 -25 85 -32 123 -11 60 -11 70 6 94 19
30 27 127 13 155 -11 21 -36 35 -72 42 -20 3 -28 0 -32 -15z m70 -50 c8 -37
-2 -102 -20 -126 -13 -16 -14 -7 -15 74 0 76 2 91 14 87 8 -3 18 -19 21 -35z"/>
<path d="M2734 1722 c-22 -14 -36 -85 -39 -190 -5 -224 30 -324 110 -313 60 8
84 86 81 261 -1 103 -5 133 -23 172 -28 60 -91 95 -129 70z m72 -40 c29 -19
36 -59 38 -206 1 -123 -2 -158 -16 -189 -14 -31 -22 -38 -40 -35 -18 2 -26 14
-36 53 -17 65 -20 332 -3 363 12 22 36 28 57 14z"/>
<path d="M2983 1693 c-12 -28 -17 -75 -19 -175 -3 -187 15 -267 68 -294 52
-27 100 14 116 100 8 43 7 221 -1 274 -12 78 -61 132 -122 132 -21 0 -29 -8
-42 -37z m102 -23 c13 -15 20 -44 25 -103 13 -178 -5 -308 -44 -315 -25 -5
-34 6 -49 64 -18 68 -16 336 2 358 18 22 44 20 66 -4z"/>
<path d="M3445 1710 c-11 -13 -20 -41 -23 -76 -4 -49 0 -64 37 -140 39 -79 46
-109 43 -175 -3 -36 -36 -69 -63 -62 -17 5 -20 2 -17 -13 5 -30 50 -29 81 2
52 51 49 156 -7 257 -39 70 -47 107 -34 155 7 25 14 32 33 32 28 0 34 24 9 34
-26 10 -40 7 -59 -14z"/>
<path d="M2258 1714 c-8 -14 -2 -446 6 -472 16 -49 114 -3 144 66 11 26 15 72
16 157 1 113 -1 123 -25 165 -15 25 -36 53 -47 63 -22 20 -87 34 -94 21z m96
-67 c36 -55 44 -256 13 -329 -8 -20 -25 -41 -36 -48 -20 -10 -21 -8 -22 32 -1
24 -3 61 -4 83 -3 57 -7 223 -6 268 1 34 3 37 21 27 11 -6 26 -21 34 -33z"/>
<path d="M3253 1698 c-5 -13 -8 -124 -8 -248 l0 -225 62 -2 c34 -1 65 2 68 6
8 14 -18 29 -55 33 l-35 3 0 224 c0 170 -3 225 -12 228 -7 3 -16 -6 -20 -19z"/>
</g>
</svg>
