<?xml version="1.0" standalone="no"?>
<!DOCTYPE svg PUBLIC "-//W3C//DTD SVG 20010904//EN"
 "http://www.w3.org/TR/2001/REC-SVG-20010904/DTD/svg10.dtd">
<svg version="1.0" xmlns="http://www.w3.org/2000/svg"
 width="192.000000pt" height="192.000000pt" viewBox="0 0 192.000000 192.000000"
 preserveAspectRatio="xMidYMid meet">
<g transform="translate(0.000000,192.000000) scale(0.100000,-0.100000)"
fill="#000000" stroke="none">
<path d="M934 1838 c-23 -11 -44 -47 -44 -76 0 -12 -20 -25 -66 -42 -73 -27
-108 -61 -98 -94 9 -28 22 -36 61 -36 17 0 34 -4 38 -10 3 -5 -15 -47 -39 -94
-59 -111 -55 -129 30 -129 70 0 104 9 104 28 0 8 8 19 18 24 9 6 13 11 9 11
-5 0 -1 8 8 17 16 16 18 15 36 -8 10 -13 19 -29 19 -35 0 -29 109 -49 166 -31
30 10 24 40 -25 132 -23 42 -39 81 -36 86 4 5 21 9 40 9 55 0 79 44 46 84 -10
12 -84 48 -124 60 -9 3 -20 14 -23 23 -17 53 -27 72 -42 78 -31 12 -57 13 -78
3z"/>
<path d="M402 1497 c-26 -16 -49 -33 -52 -37 -14 -19 -44 -27 -70 -17 -39 15
-77 1 -95 -33 -21 -41 -19 -53 15 -90 28 -30 30 -36 23 -79 -12 -70 -6 -121
14 -137 29 -22 47 -16 82 23 l32 36 40 -59 c21 -32 39 -65 39 -73 0 -8 3 -12
6 -9 3 3 17 -6 31 -20 l26 -26 18 25 c11 13 22 29 26 34 5 6 16 27 25 47 17
36 17 38 -7 80 -14 24 -25 46 -25 49 0 6 18 9 68 9 22 0 41 9 55 24 22 24 67
101 67 116 0 15 -55 27 -135 29 -44 1 -84 6 -89 11 -5 5 -3 22 7 41 11 24 12
38 5 55 -16 35 -52 35 -106 1z"/>
<path d="M1442 1498 c-17 -17 -15 -54 4 -82 20 -32 10 -37 -89 -41 -76 -3
-137 -17 -137 -30 0 -4 17 -35 38 -70 37 -64 37 -65 82 -65 68 0 76 -9 51 -56
-12 -21 -21 -47 -21 -56 0 -22 67 -128 81 -128 15 0 56 48 95 112 39 63 58 72
76 33 6 -14 17 -25 25 -25 7 0 13 -4 13 -9 0 -16 60 12 61 29 6 70 5 98 -3
127 -8 31 -6 37 21 64 33 31 38 53 20 92 -17 37 -53 50 -100 36 -36 -11 -40
-10 -62 12 -12 14 -29 28 -37 32 -8 4 -26 14 -40 22 -31 18 -62 19 -78 3z"/>
<path d="M458 933 c-14 -16 -38 -48 -53 -73 -51 -84 -53 -85 -90 -43 -26 30
-36 35 -57 30 -16 -4 -30 -17 -36 -34 -9 -27 -9 -47 2 -125 5 -31 1 -42 -24
-67 -33 -32 -36 -47 -19 -84 18 -40 51 -52 99 -38 34 10 43 10 56 -4 33 -32
82 -65 97 -65 10 0 17 -4 17 -9 0 -14 37 -1 55 19 16 17 16 21 1 51 -26 52
-22 59 37 60 28 1 66 2 82 4 17 1 42 3 56 4 42 2 42 26 2 97 -37 64 -37 64
-83 64 -69 0 -75 9 -46 60 13 24 22 50 18 59 -10 28 -71 121 -80 121 -5 0 -20
-12 -34 -27z"/>
<path d="M1402 874 c-38 -66 -39 -74 -10 -125 12 -21 19 -41 16 -44 -3 -3 -26
-6 -51 -7 -24 0 -49 -3 -55 -7 -5 -3 -26 -32 -45 -65 -35 -57 -39 -81 -14 -84
7 -1 26 -4 42 -6 17 -3 59 -6 95 -7 36 -1 68 -3 72 -6 5 -2 -1 -21 -12 -43
-19 -37 -19 -39 -1 -61 18 -22 71 -34 71 -15 0 5 3 7 6 3 4 -3 12 -1 19 6 6 7
24 21 39 32 16 11 33 25 40 31 7 6 20 8 31 3 43 -16 83 -10 104 17 30 38 27
77 -8 107 -26 21 -28 29 -23 63 13 78 8 133 -13 149 -11 8 -26 15 -32 15 -15
0 -46 -29 -61 -56 -10 -18 -12 -18 -36 5 -14 14 -26 30 -26 37 0 21 -80 114
-98 114 -11 0 -30 -21 -50 -56z"/>
<path d="M757 548 c-6 -4 -12 -13 -13 -20 0 -18 56 -131 70 -140 6 -4 7 -8 2
-8 -6 0 -5 -5 2 -12 22 -22 12 -36 -33 -42 -25 -4 -49 -14 -54 -23 -15 -28 10
-83 38 -83 6 0 11 -4 11 -10 0 -5 3 -9 8 -8 4 2 28 -5 53 -15 40 -15 48 -23
53 -52 8 -41 38 -65 82 -65 37 0 74 38 74 75 0 16 9 26 33 35 104 40 128 57
133 95 3 30 -12 43 -62 51 -21 3 -40 7 -42 9 -5 5 51 109 62 117 6 4 7 8 2 8
-5 0 -3 6 3 14 17 20 22 76 8 77 -7 1 -39 2 -72 3 -69 3 -97 -11 -115 -54 -17
-41 -34 -38 -67 12 l-28 42 -68 1 c-37 1 -73 -2 -80 -7z"/>
</g>
</svg>
